<svg xmlns="http://www.w3.org/2000/svg" xmlns:xlink="http://www.w3.org/1999/xlink" viewBox="0 0 57 65" fill="#fff" fill-rule="evenodd" stroke="#000" stroke-linecap="round" stroke-linejoin="round" width="300" height="300"><defs><style type="text/css"></style></defs><style>.B{fill:#2f406a}.C{fill:#2379bd}.D{fill:#03afef}</style><use xlink:href="#A" x=".5" y=".5"></use><symbol id="A" overflow="visible"><g stroke="none" fill-rule="nonzero"><path d="M47.458 20.414v23.073L27.865 54.974l-.18.164v8.697l.18.164L55.45 48.065v-32.13h-.263l-7.778 4.35v.18" class="B"></path><path d="M8.205 43.65l19.692 11.405V64L.082 48V16h.28l7.762 4.513.082.263V43.75" class="C"></path><path d="M8.205 20.726L0 16 27.8 0l27.65 15.934-7.992 4.48L27.765 9.206 8.172 20.693" class="D"></path><path d="M27.52 41l-.213-.213V32.15l.213-.115v-.213l7.417-4.332h.23v8.927L27.47 40.98" class="B"></path><path d="M19.692 36.743V27.47h.213l7.55 4.398v9.157l-7.828-4.283" class="C"></path><path d="M27.39 22.925l-7.696 4.562L27.52 32l7.696-4.496-7.828-4.628" class="D"></path><path d="M17.925 46.67l-.213-.213v-8.665l.213-.115v-.213l7.417-4.332h.23v8.927l-7.687 4.56" class="B"></path><path d="M10.11 42.388v-9.272h.213l7.55 4.398v9.157L10.1 42.388" class="C"></path><path d="M17.82 28.57l-7.713 4.546 7.828 4.562 7.696-4.496-7.828-4.628" class="D"></path><path d="M37.793 46.884l-.213-.213v-8.665l.213-.115v-.213l7.417-4.332h.23v8.927l-7.696 4.562" class="B"></path><path d="M29.965 42.6v-9.27h.246l7.55 4.398v9.157l-7.83-4.285" class="C"></path><path d="M37.66 28.718l-7.696 4.562 7.828 4.562 7.696-4.496-7.828-4.628" class="D"></path><path d="M28.21 52.53l-.213-.213V43.65l.213-.115v-.213L35.625 39h.23v8.927L28.16 52.49" class="B"></path><path d="M20.365 48.246V39h.213l7.55 4.398v9.157l-7.762-4.3" class="C"></path><path d="M28.078 34.43L20.365 39l7.844 4.496L35.905 39l-7.828-4.562" class="D"></path><path d="M27.52 28.718l-.213-.213v-8.632l.213-.115v-.213l7.417-4.332h.23v8.927l-7.647 4.578" class="B"></path><path d="M19.692 24.468v-9.272h.213l7.55 4.398v9.124l-7.828-4.283" class="C"></path><path d="M27.39 10.667l-7.696 4.562 7.828 4.562 7.696-4.496-7.828-4.628" class="D"></path><path d="M17.925 34.38l-.213-.213v-8.73l.213-.115v-.213l7.417-4.332h.23v8.927l-7.696 4.562" class="B"></path><path d="M10.11 30.113V20.84h.213l7.55 4.398v9.157L10.1 30.112" class="C"></path><path d="M17.82 16.295l-7.713 4.546 7.828 4.595 7.696-4.496-7.828-4.628" class="D"></path><path d="M37.793 34.593l-.213-.213v-8.65l.213-.115v-.213L45.2 21.07h.23v8.927l-7.695 4.563" class="B"></path><path d="M29.965 30.36v-9.305h.246l7.516 4.382v9.157l-7.762-4.234" class="C"></path><path d="M37.66 16.5l-7.696 4.56 7.828 4.562 7.696-4.496-7.828-4.628" class="D"></path><path d="M28.21 40.205l-.213-.213v-8.615l.213-.115v-.213l7.417-4.332h.23v8.927l-7.647 4.562" class="B"></path><path d="M20.365 35.97V26.7h.213l7.55 4.398v9.108l-7.763-4.236" class="C"></path><path d="M28.078 22.154L20.365 26.7l7.828 4.562 7.696-4.496-7.8-4.6" class="D"></path></g></symbol></svg>